<svg role="img" viewBox="0 0 200 200" xmlns="http://www.w3.org/2000/svg" id="Scipy--Streamline-Simple-Icons" height="200" width="200">
  <desc>
    Scipy Streamline Icon: https://streamlinehq.com
  </desc>
  <title>SciPy</title>
  <path d="M130.80833333333334 112.46666666666668c-6.533333333333334 -8.933333333333335 -16.51666666666667 -12.658333333333333 -30.783333333333335 -15.666666666666666l-13.266666666666667 -3.125 -10.008333333333335 -4.291666666666667c-5.258333333333334 -3.716666666666667 -9.75 -13.616666666666667 -8.475 -22.34166666666667a25 25 0 0 1 28.21666666666667 -21.05 24.683333333333337 24.683333333333337 0 0 1 16.35 9.625000000000002L127.91666666666667 75.41666666666667c8.608333333333333 11.083333333333334 18.291666666666668 14.39166666666667 28.825000000000003 9.150000000000002l5.308333333333334 -2.2500000000000004a1.8333333333333335 1.8333333333333335 0 0 1 2.316666666666667 0.725l1.0583333333333333 1.5833333333333335a2.591666666666667 2.591666666666667 0 0 0 1.3 1.0916666666666668 2.716666666666667 2.716666666666667 0 0 0 2.7500000000000004 -0.4833333333333334l12.225000000000001 -11.533333333333333c2.141666666666667 -1.8333333333333335 1.5166666666666668 -3.5166666666666666 1.5166666666666668 -3.5166666666666666l-2.95 -6.716666666666668s-0.8083333333333335 -1.6083333333333334 -3.591666666666667 -1.2416666666666667l-16.400000000000002 1.5083333333333333a2.725 2.725 0 0 0 -2.2500000000000004 3.4250000000000003l0.5916666666666667 1.8916666666666668c0.11666666666666668 0.3916666666666667 0.11666666666666668 0.8333333333333335 -0.04166666666666667 1.2333333333333334a1.8250000000000002 1.8250000000000002 0 0 1 -1.0333333333333334 1.0416666666666667l-4.633333333333334 1.9583333333333333c-4.85 2.8416666666666672 -10.366666666666667 1.0250000000000001 -14.05 -3.475l-4.208333333333334 -5.583333333333334 -11.983333333333334 -15.916666666666668a36.84166666666667 36.84166666666667 0 0 0 -24.408333333333335 -14.333333333333334C77.95833333333334 31.108333333333338 59.125 45.16666666666667 56.175000000000004 65.33333333333334c-1.4916666666666667 10.166666666666668 1.5583333333333333 19.791666666666668 7.125 27.51666666666667 4.041666666666667 5.616666666666667 11.441666666666668 8.833333333333334 15.450000000000001 9.833333333333334l10.516666666666667 3 10.066666666666666 2.3083333333333336c1.3833333333333335 0.33333333333333337 5.283333333333334 1.2916666666666667 7.583333333333334 2.125 2.1333333333333337 0.7666666666666667 7.041666666666667 2.5833333333333335 11.033333333333335 5.841666666666667 4.766666666666667 4.85 7.291666666666667 11.775 6.216666666666667 19.03333333333333a22.86666666666667 22.86666666666667 0 0 1 -40.80833333333334 10.458333333333334l-14.383333333333335 -19.1a19.116666666666667 19.116666666666667 0 0 0 -12.616666666666667 -7.416666666666667 19.250000000000004 19.250000000000004 0 0 0 -14.233333333333334 3.6583333333333337l-30.26666666666667 22.583333333333336A91.68333333333335 91.68333333333335 0 0 1 0 100C0 48.31666666666667 42.775000000000006 6.4 95.54166666666667 6.4c39.29166666666667 0 73.00833333333333 23.233333333333334 87.69166666666668 56.416666666666664l4.841666666666667 -2.2500000000000004 3.2750000000000004 -8.933333333333335 3.4250000000000003 1.2 -2.941666666666667 8 8.166666666666668 2.8083333333333336 -1.2333333333333334 3.3500000000000005 -9.125 -3.1833333333333336 -5.025 2.3083333333333336c4.166666666666667 10.516666666666667 6.483333333333334 21.933333333333337 6.483333333333334 33.88333333333333 0 51.69166666666667 -42.79166666666667 93.6 -95.55833333333335 93.6a96.05000000000001 96.05000000000001 0 0 1 -77.16666666666667 -38.41666666666667l31.008333333333336 -23.233333333333334a7.125 7.125 0 0 1 9.691666666666668 1.5833333333333335l15.216666666666669 20.458333333333336a34.88333333333333 34.88333333333333 0 0 0 22.275000000000002 12.516666666666667c19.183333333333334 2.6833333333333336 36.99166666666667 -10.608333333333333 39.775 -29.69166666666667a34.5 34.5 0 0 0 -5.533333333333334 -24.35" fill="#ffffff" stroke-width="8.3333"></path>
</svg>