<?xml version="1.0" encoding="utf-8"?>
<!-- Generator: Adobe Illustrator 26.3.1, SVG Export Plug-In . SVG Version: 6.00 Build 0)  -->
<svg version="1.1" id="Layer_1" xmlns="http://www.w3.org/2000/svg" xmlns:xlink="http://www.w3.org/1999/xlink" x="0px" y="0px"
	 viewBox="0 0 400 400" style="enable-background:new 0 0 400 400;" xml:space="preserve">
<g>
	<g>
		<path class="st0" d="M196.78,0.19C88.06,0.2-0.06,87.69-0.05,196.41c0.01,84.74,54.24,159.96,134.63,186.74
			c9.84,1.82,13.4,20.92,13.4,15.79c0-5.13,0-45.48,0-61.86c-54.75,11.83-66.17-23.24-66.17-23.24
			c-8.93-22.75-21.84-28.87-21.84-28.87c-17.87-12.16,1.32-11.91,1.32-11.91c12.65,1.73,23.79,9.21,30.19,20.26
			c17.53,30.11,46.07,21.42,57.32,16.54c0.84-9.99,5.28-19.34,12.49-26.3c-43.75-4.96-89.74-21.92-89.74-97.35
			c-0.27-19.56,7.02-38.46,20.35-52.77c-6.07-16.97-5.39-35.62,1.9-52.11c0,0,16.54-5.29,54.09,20.18c32.27-8.82,66.32-8.82,98.59,0
			c37.63-25.47,54.09-20.18,54.09-20.18c7.29,16.48,7.97,35.14,1.9,52.11c13.31,14.32,20.57,33.22,20.26,52.77
			c0,75.68-45.99,92.3-89.82,97.18c9.47,9.68,14.32,22.97,13.32,36.47c0,26.3,0,72.69,0,79.23c0,5.21,3.56-13.89,13.56-15.79
			c103.14-34.36,158.9-145.83,124.54-248.97C357.54,53.89,282.24,0.29,197.44,0.35L196.78,0.19z"/>
	</g>
</g>
</svg>
