<?xml version="1.0" encoding="utf-8"?>
<!-- Generator: Adobe Illustrator 26.3.1, SVG Export Plug-In . SVG Version: 6.00 Build 0)  -->
<svg version="1.1" id="Layer_1" xmlns="http://www.w3.org/2000/svg" xmlns:xlink="http://www.w3.org/1999/xlink" x="0px" y="0px"
	 viewBox="0 0 400 400" style="enable-background:new 0 0 400 400;" xml:space="preserve">
<path class="st0" d="M299.5,0H100.6C45.2,0,0,45.2,0,100.6v198.9C0,354.8,45.2,400,100.6,400h198.9c55.3,0,100.5-45.2,100.5-100.5
	V100.6C400,45.2,354.8,0,299.5,0z M136.1,311.5H87V163.9h49.1V311.5z M112.3,139.1c-13.9,0-25.3-11.3-25.3-25.3s11.3-25.3,25.3-25.3
	s25.3,11.3,25.3,25.3S126.2,139.1,112.3,139.1z M313,311.5h-49.1v-79c0-19.8-7.1-33.4-24.9-33.4c-13.6,0-21.6,9.1-25.2,17.9
	c-1.3,3.1-1.6,7.5-1.6,12v82.4h-49.1c0,0,0.7-133.7,0-147.6h49.1v20.9c6.5-10,18.1-24.4,44.2-24.4c32.3,0,56.5,21.1,56.5,66.4V311.5
	z"/>
</svg>
