<?xml version="1.0" encoding="utf-8"?>
<!-- Generator: Adobe Illustrator 26.3.1, SVG Export Plug-In . SVG Version: 6.00 Build 0)  -->
<svg version="1.1" id="Layer_1" xmlns="http://www.w3.org/2000/svg" xmlns:xlink="http://www.w3.org/1999/xlink" x="0px" y="0px"
	 viewBox="0 0 400 400" style="enable-background:new 0 0 400 400;" xml:space="preserve">
<g>
	<path class="st0" d="M51.28,54.04l121.47,125.42c6.9,7.13,16.85,11.22,27.3,11.22c10.44,0,20.39-4.09,27.3-11.22L346.71,56.22
		c0.99-1.02,2.15-1.8,3.38-2.43c-5.06-2.01-10.64-3.15-16.51-3.15H66.52c-5.62,0-10.97,1.03-15.85,2.88
		C50.87,53.7,51.09,53.84,51.28,54.04z"/>
	<path class="st0" d="M392.74,77.76c-0.61,1.46-1.47,2.86-2.67,4.1L253.49,222.88c-13.53,13.97-33.03,21.98-53.48,21.98
		c-20.46,0-39.95-8.01-53.48-21.98L7.53,79.37c-0.28-0.29-0.48-0.62-0.73-0.92C2.52,84.92,0,92.47,0,100.58v194.25
		c0,23.73,21.14,42.96,47.21,42.96H352.8c26.07,0,47.2-19.23,47.2-42.96V100.58C400,92.19,397.31,84.38,392.74,77.76z"/>
</g>
</svg>
